<?xml version="1.0" encoding="utf-8"?>
<!-- Generator: Adobe Illustrator 25.2.3, SVG Export Plug-In . SVG Version: 6.00 Build 0)  -->
<svg version="1.1" id="Layer_1" xmlns="http://www.w3.org/2000/svg" xmlns:xlink="http://www.w3.org/1999/xlink" x="0px" y="0px"
	 viewBox="0 0 600 600" style="enable-background:new 0 0 600 600;" xml:space="preserve">
<style type="text/css">
	.st0{opacity:0.23;fill:#D90B0B;}
	.st1{opacity:0.46;fill:#D90B0B;}
	.st2{fill:#D90B0B;}
</style>
<path class="st0" d="M300,600C134.58,600,0,465.42,0,300S134.58,0,300,0s300,134.58,300,300S465.42,600,300,600z M300,27.72
	C149.87,27.72,27.73,149.87,27.73,300S149.87,572.28,300,572.28S572.27,450.13,572.27,300S450.13,27.72,300,27.72z"/>
<path class="st1" d="M300,524.76C176.07,524.76,75.24,423.93,75.24,300S176.07,75.24,300,75.24S524.76,176.07,524.76,300
	S423.93,524.76,300,524.76z M300,102.97c-108.65,0-197.03,88.39-197.03,197.03S191.35,497.03,300,497.03S497.03,408.65,497.03,300
	S408.65,102.97,300,102.97z"/>
<path class="st2" d="M300,149.02c-83.25,0-150.98,67.73-150.98,150.98S216.75,450.98,300,450.98S450.98,383.25,450.98,300
	S383.25,149.02,300,149.02z M300,176.74c50.97,0,94.82,31.1,113.56,75.33h-43.62l-30.84,30.84v-63.42L300,180.39l-39.09,39.09v63.42
	l-30.84-30.84h-43.62C205.18,207.84,249.03,176.74,300,176.74z M288.65,422.72c-28.69-2.63-54.55-15.14-74.18-34.08h74.18V422.72z
	 M332.9,361.88h-65.8l-14.98-14.9l-48.63-48.38v-19.78h15.49l68.67,68.67V230.57L300,218.23l12.34,12.34v116.93l68.67-68.67h15.49
	v19.78l-48.63,48.38L332.9,361.88z M385.52,388.63c-19.63,18.94-45.49,31.45-74.18,34.08v-34.08H385.52z M177.2,310.17l56.06,55.77
	h-37.31C185.52,349.56,178.87,330.56,177.2,310.17z M404.06,365.94h-37.31l56.06-55.77C421.13,330.56,414.48,349.55,404.06,365.94z"
	/>
</svg>
